<svg xmlns="http://www.w3.org/2000/svg" xmlns:xlink="http://www.w3.org/1999/xlink" width="500" zoomAndPan="magnify" viewBox="0 0 375 374.999991" height="500" preserveAspectRatio="xMidYMid meet" version="1.0"><defs><clipPath id="d11b55ab0a"><path d="M 0.558594 0.238281 L 274.640625 0.238281 L 274.640625 274.558594 L 0.558594 274.558594 Z M 0.558594 0.238281 " clip-rule="nonzero"/></clipPath><clipPath id="2f682d00f9"><rect x="0" width="275" y="0" height="275"/></clipPath><clipPath id="d7a1d6a721"><path d="M 0.0390625 0.0390625 L 274.359375 0.0390625 L 274.359375 274.359375 L 0.0390625 274.359375 Z M 0.0390625 0.0390625 " clip-rule="nonzero"/></clipPath><clipPath id="80ffc0c658"><rect x="0" width="275" y="0" height="275"/></clipPath></defs><path stroke-linecap="round" transform="matrix(0.53033, -0.53033, 0.53033, 0.53033, 0.0152086, 339.45197)" fill="none" stroke-linejoin="miter" d="M 33.498489 33.500668 L 606.549645 33.500668 " stroke="#ff914d" stroke-width="67" stroke-opacity="1" stroke-miterlimit="4"/><g transform="matrix(1, 0, 0, 1, 4, 6)"><g clip-path="url(#2f682d00f9)"><path stroke-linecap="round" transform="matrix(1.143036, 0, 0, 1.143036, 13.781465, 11.504358)" fill="none" stroke-linejoin="miter" d="M 22.001259 22.001052 L 194.995244 22.001052 " stroke="#ff914d" stroke-width="44" stroke-opacity="1" stroke-miterlimit="4"/><g clip-path="url(#d11b55ab0a)"><path stroke-linecap="round" transform="matrix(0.808248, -0.808248, 0.808248, 0.808248, 0.586469, 238.806795)" fill="none" stroke-linejoin="miter" d="M 21.998298 22.000523 L 272.056847 22.000523 " stroke="#ff914d" stroke-width="44" stroke-opacity="1" stroke-miterlimit="4"/></g></g></g><g transform="matrix(1, 0, 0, 1, 95, 95)"><g clip-path="url(#80ffc0c658)"><path stroke-linecap="round" transform="matrix(1.143036, 0, 0, 1.143036, 12.131521, 214.115086)" fill="none" stroke-linejoin="miter" d="M 21.99916 21.999869 L 196.790716 21.999869 " stroke="#ff914d" stroke-width="44" stroke-opacity="1" stroke-miterlimit="4"/><g clip-path="url(#d7a1d6a721)"><path stroke-linecap="round" transform="matrix(0.808248, -0.808248, 0.808248, 0.808248, 0.191961, 238.632673)" fill="none" stroke-linejoin="miter" d="M 21.99931 21.999482 L 272.057859 21.999482 " stroke="#ff914d" stroke-width="44" stroke-opacity="1" stroke-miterlimit="4"/></g></g></g></svg>